<svg width="94" height="24" viewBox="0 0 94 24" fill="none" xmlns="http://www.w3.org/2000/svg">
<path d="M21.1129 0H5.61155C3.59282 0 1.95801 1.64924 1.95801 3.685V19.3176C1.95801 21.3521 3.59282 23.002 5.61155 23.002H21.1129C23.1313 23.002 24.7652 21.3521 24.7652 19.3176V3.685C24.7652 1.64924 23.1313 0 21.1129 0Z" fill="#1677FF"/>
<path d="M8.12105 17.6891C4.57285 17.6891 3.52384 14.8704 5.27736 13.3283C5.86252 12.8071 6.93178 12.5527 7.50185 12.4956C9.60957 12.2855 11.5607 13.0965 13.8631 14.2299C12.2447 16.3592 10.1833 17.6891 8.12105 17.6891ZM20.7363 14.4436C19.8237 14.1353 18.5991 13.6639 17.2351 13.1663C18.0542 11.7301 18.7085 10.0946 19.1386 8.3172H14.6428V6.68412H20.1501V5.77256H14.6428V3.05018H12.3953C12.001 3.05018 12.001 3.44272 12.001 3.44272V5.77256H6.43108V6.68412H12.001V8.3172H7.40232V9.22854H16.3214C15.995 10.3627 15.5568 11.4274 15.0367 12.3947C12.1426 11.4317 9.05436 10.6511 7.11426 11.1316C5.87351 11.4399 5.07441 11.9901 4.60496 12.5667C2.45027 15.2106 3.99567 19.2266 8.54612 19.2266C11.2366 19.2266 13.8284 17.7137 15.8373 15.2205C18.8335 16.6731 24.7656 19.1671 24.7656 19.1671V15.6127C24.7656 15.6127 24.0206 15.5528 20.7363 14.4436Z" fill="white"/>
<path d="M51.4819 3.36843C51.4819 4.55834 52.3515 5.35938 53.5644 5.35938C54.7774 5.35938 55.6469 4.55834 55.6469 3.36843C55.6469 2.20136 54.7774 1.37727 53.5644 1.37727C52.3515 1.37727 51.4819 2.20136 51.4819 3.36843Z" fill="#1677FF"/>
<path d="M45.6689 18.587H49.2848V1.88086H45.6689V18.587Z" fill="black"/>
<path d="M34.0661 12.7978L36.2172 5.36011H36.3089L38.3458 12.7978H34.0661ZM39.3299 2.45373H34.4781L29.0542 18.5879H32.3956L33.311 15.4297H39.0552L39.9246 18.5879H44.2044L39.3299 2.45373Z" fill="black"/>
<path d="M51.7563 18.5887H55.3722V6.32227H51.7563V18.5887Z" fill="black"/>
<path d="M93.1573 6.34241L93.1799 6.31957H89.77L87.619 13.7801H87.5046L85.033 6.31957H80.9819L85.8568 18.6319L83.82 22.385V22.4766H87.0011L93.1573 6.34241Z" fill="black"/>
<path d="M62.0779 16.4807C61.6662 16.4807 61.2769 16.435 60.8423 16.2976V9.66093C61.5975 9.13459 62.2154 8.88274 62.9934 8.88274C64.3438 8.88274 65.4193 9.95846 65.4193 12.2469C65.4193 15.1762 63.8403 16.4807 62.0779 16.4807ZM64.3666 6.06793C63.0393 6.06793 62.0094 6.57143 60.8423 7.53253V6.31957H57.2261V22.4766H60.8423V18.4716C61.5288 18.6548 62.1695 18.7463 62.9477 18.7463C66.1744 18.7463 69.081 16.3663 69.081 12.1325C69.081 8.33356 66.9753 6.06793 64.3666 6.06793Z" fill="black"/>
<path d="M76.6564 15.6129C75.6952 16.1392 75.1456 16.3452 74.5053 16.3452C73.6356 16.3452 73.0864 15.7732 73.0864 14.8577C73.0864 14.5143 73.1549 14.1711 73.4294 13.8966C73.8644 13.4616 74.7113 13.1413 76.6564 12.6837V15.6129ZM80.2722 15.5213V10.3952C80.2722 7.60301 78.6247 6.06989 75.7183 6.06989C73.8644 6.06989 72.5829 6.39004 70.2485 7.09951L70.8891 9.91453C73.0175 8.95321 73.9559 8.54128 74.9401 8.54128C76.1302 8.54128 76.6564 9.38798 76.6564 10.6925V10.7841C72.514 11.5623 71.2325 11.997 70.4315 12.7981C69.8366 13.3931 69.585 14.2398 69.585 15.2238C69.585 17.581 71.4158 18.8398 73.1323 18.8398C74.4138 18.8398 75.4434 18.3592 76.8397 17.3063L77.0913 18.588H80.7072L80.2722 15.5213Z" fill="black"/>
</svg>
