<svg width="17" height="21" viewBox="0 0 17 21" fill="none" xmlns="http://www.w3.org/2000/svg">
<path fill-rule="evenodd" clip-rule="evenodd" d="M14.3333 7H13.3333V5C13.3333 2.24 11.0933 0 8.33334 0C5.57334 0 3.33334 2.24 3.33334 5V7H2.33334C1.23334 7 0.333344 7.9 0.333344 9V19C0.333344 20.1 1.23334 21 2.33334 21H14.3333C15.4333 21 16.3333 20.1 16.3333 19V9C16.3333 7.9 15.4333 7 14.3333 7ZM8.33334 16C7.23334 16 6.33334 15.1 6.33334 14C6.33334 12.9 7.23334 12 8.33334 12C9.43334 12 10.3333 12.9 10.3333 14C10.3333 15.1 9.43334 16 8.33334 16ZM11.4333 7H5.23334V5C5.23334 3.29 6.62334 1.9 8.33334 1.9C10.0433 1.9 11.4333 3.29 11.4333 5V7Z" fill="#1D1E20"/>
</svg>
