<svg width="21" height="20" viewBox="0 0 21 20" fill="none" xmlns="http://www.w3.org/2000/svg">
<path d="M2.08669 10C2.08669 8.76 2.35669 7.58 2.82669 6.5L6.92669 17.72C4.05669 16.33 2.08669 13.4 2.08669 10ZM16.4567 9.57C16.4567 10.3 16.1667 11.15 15.8067 12.34L14.9467 15.2L11.8467 6L12.8267 5.9C13.2967 5.84 13.2367 5.16 12.7767 5.19C12.7767 5.19 11.3867 5.3 10.4867 5.3L8.22669 5.19C7.76669 5.16 7.71669 5.87 8.16669 5.9L9.07669 6L10.4167 9.64L8.53669 15.27L5.40669 6L6.39669 5.9C6.85669 5.84 6.79669 5.16 6.33669 5.19C6.33669 5.19 4.94669 5.3 4.04669 5.3L3.49669 5.29C5.03669 2.96 7.66669 1.42 10.6667 1.42C12.8967 1.42 14.9367 2.28 16.4567 3.67H16.3467C15.5067 3.67 14.9067 4.4 14.9067 5.19C14.9067 5.9 15.3167 6.5 15.7467 7.2C16.0767 7.77 16.4567 8.5 16.4567 9.57ZM10.8167 10.75L13.4567 17.97L13.5167 18.09C12.6267 18.41 11.6667 18.58 10.6667 18.58C9.82669 18.58 9.01669 18.46 8.24669 18.23L10.8167 10.75ZM18.1967 5.88C18.8667 7.11 19.2467 8.5 19.2467 10C19.2467 13.16 17.5267 15.93 14.9767 17.41L17.5967 9.84C18.0867 8.62 18.2567 7.64 18.2567 6.77L18.1967 5.88ZM10.6667 0C11.9799 0 13.2803 0.258658 14.4935 0.761205C15.7068 1.26375 16.8092 2.00035 17.7378 2.92893C18.6663 3.85752 19.4029 4.95991 19.9055 6.17317C20.408 7.38642 20.6667 8.68678 20.6667 10C20.6667 12.6522 19.6131 15.1957 17.7378 17.0711C15.8624 18.9464 13.3189 20 10.6667 20C9.35347 20 8.05311 19.7413 6.83985 19.2388C5.6266 18.7362 4.5242 17.9997 3.59562 17.0711C1.72026 15.1957 0.666687 12.6522 0.666687 10C0.666687 7.34784 1.72026 4.8043 3.59562 2.92893C5.47098 1.05357 8.01452 0 10.6667 0ZM10.6667 19.54C15.9267 19.54 20.2067 15.26 20.2067 10C20.2067 4.74 15.9267 0.46 10.6667 0.46C5.40669 0.46 1.12669 4.74 1.12669 10C1.12669 15.26 5.40669 19.54 10.6667 19.54Z" fill="#1D1E20"/>
</svg>
